<svg xmlns="http://www.w3.org/2000/svg" width="1200" height="675" viewBox="0 0 1200 675" role="img" aria-labelledby="title desc">
  <title id="title">Why AI Services Are No Longer Optional</title>
  <desc id="desc">Boltcall blog preview image for Why AI Services Are No Longer Optional.</desc>
  <rect width="1200" height="675" fill="white"/>
  <rect x="36" y="36" width="1128" height="603" rx="44" fill="white" stroke="#0B1220" stroke-width="6"/>
  <path d="M72 557h1056" stroke="#DBEAFE" stroke-width="4"/>
  <rect x="86" y="84" width="188" height="46" rx="23" fill="#EFF6FF" stroke="#BFDBFE" stroke-width="2"/>
  <text x="112" y="115" font-family="Inter, Arial, sans-serif" font-size="20" font-weight="800" fill="#2563EB">Speed to lead</text>
  <text x="86" y="177" font-family="Inter, Arial, sans-serif" font-size="26" font-weight="800" letter-spacing="4" fill="#2563EB">BOLTCALL</text>
  <text x="86" y="236" font-family="Inter, Arial, sans-serif" font-size="54" font-weight="800" fill="#0B1220">Why AI Services Are No</text>
<text x="86" y="305" font-family="Inter, Arial, sans-serif" font-size="54" font-weight="800" fill="#0B1220">Longer Optional</text>
  <text x="86" y="475" font-family="Inter, Arial, sans-serif" font-size="28" font-weight="600" fill="#334155">local business growth guide</text>
  <g transform="translate(882 80)">
    <path d="M840 120c80 34 160 34 240 0M840 180c80 34 160 34 240 0M840 240c80 34 160 34 240 0" stroke="#DBEAFE" stroke-width="12" stroke-linecap="round"/>
  </g>
  <g transform="translate(870 250) scale(1.15)">
    <rect x="0" y="7" width="86" height="86" rx="22" fill="white" stroke="#0B1220" stroke-width="5"/><path d="M25 37c8-16 28-16 36 0M25 63c8 16 28 16 36 0" stroke="#2563EB" stroke-width="7" stroke-linecap="round"/><path d="M13 50h60" stroke="#0B1220" stroke-width="5" stroke-linecap="round"/>
  </g>
  <circle cx="948" cy="430" r="86" fill="#2563EB"/><path d="M906 430h84l-24-24M990 430l-24 24" stroke="white" stroke-width="13" stroke-linecap="round" stroke-linejoin="round"/>
  <path d="M88 587h150" stroke="#2563EB" stroke-width="12" stroke-linecap="round"/>
  <path d="M1010 586h66M1098 586h28" stroke="#0B1220" stroke-width="10" stroke-linecap="round"/>
</svg>
