<svg xmlns="http://www.w3.org/2000/svg" width="1200" height="675" viewBox="0 0 1200 675" role="img" aria-labelledby="title desc">
  <title id="title">AI Receptionist for Plumbers: Answer Every Call 24/7 (2026 Guide)</title>
  <desc id="desc">Boltcall blog preview image for AI Receptionist for Plumbers: Answer Every Call 24/7 (2026 Guide).</desc>
  <rect width="1200" height="675" fill="white"/>
  <rect x="36" y="36" width="1128" height="603" rx="44" fill="white" stroke="#0B1220" stroke-width="6"/>
  <path d="M72 557h1056" stroke="#DBEAFE" stroke-width="4"/>
  <rect x="86" y="84" width="188" height="46" rx="23" fill="#EFF6FF" stroke="#BFDBFE" stroke-width="2"/>
  <text x="112" y="115" font-family="Inter, Arial, sans-serif" font-size="20" font-weight="800" fill="#2563EB">Industry guide</text>
  <text x="86" y="177" font-family="Inter, Arial, sans-serif" font-size="26" font-weight="800" letter-spacing="4" fill="#2563EB">BOLTCALL</text>
  <text x="86" y="236" font-family="Inter, Arial, sans-serif" font-size="54" font-weight="800" fill="#0B1220">AI Receptionist for</text>
<text x="86" y="305" font-family="Inter, Arial, sans-serif" font-size="54" font-weight="800" fill="#0B1220">Plumbers: Answer Every Call</text>
<text x="86" y="374" font-family="Inter, Arial, sans-serif" font-size="54" font-weight="800" fill="#0B1220">24/7</text>
  <text x="86" y="475" font-family="Inter, Arial, sans-serif" font-size="28" font-weight="600" fill="#334155">local business growth guide</text>
  <g transform="translate(882 80)">
    <path d="M820 112h250M820 156h180M820 200h290" stroke="#DBEAFE" stroke-width="14" stroke-linecap="round"/>
  </g>
  <g transform="translate(870 250) scale(1.15)">
    <rect x="4" y="12" width="94" height="78" rx="20" fill="white" stroke="#0B1220" stroke-width="5"/><path d="M25 8v18M77 8v18M23 45h56M23 65h34" stroke="#2563EB" stroke-width="7" stroke-linecap="round"/>
  </g>
  <rect x="826" y="356" width="248" height="148" rx="36" fill="white" stroke="#2563EB" stroke-width="10"/><path d="M880 424h136M880 462h80" stroke="#0B1220" stroke-width="12" stroke-linecap="round"/>
  <path d="M88 587h150" stroke="#2563EB" stroke-width="12" stroke-linecap="round"/>
  <path d="M1010 586h66M1098 586h28" stroke="#0B1220" stroke-width="10" stroke-linecap="round"/>
</svg>
